<svg width="512" height="512" viewBox="0 0 512 512" fill="none" xmlns="http://www.w3.org/2000/svg">
<rect width="512" height="512" rx="95" fill="white"/>
<path d="M344.693 110.008C344.763 110.008 344.833 110.148 344.833 110.359C344.833 110.534 344.658 110.709 344.448 110.709C344.272 110.709 344.202 110.534 344.307 110.359C344.413 110.148 344.588 110.008 344.693 110.008ZM277.318 119.601C277.238 119.601 277.193 119.654 277.193 119.751C277.193 120.094 277.634 120.483 277.931 120.483C277.998 120.483 278.058 120.463 278.104 120.417C278.174 120.347 278.034 120.067 277.718 119.821C277.549 119.671 277.41 119.601 277.318 119.601ZM277.823 127.882C278.559 127.882 278.665 127.952 278.244 128.232C277.894 128.46 277.543 128.574 277.28 128.574C277.017 128.574 276.842 128.46 276.842 128.232C276.842 128.022 277.263 127.882 277.823 127.882ZM154.149 167.196C154.302 167.196 154.451 167.371 154.739 167.73C155.229 168.396 155.405 169.588 154.984 169.588C153.337 169.553 152.706 168.642 153.582 167.66C153.855 167.353 154.004 167.196 154.149 167.196ZM98.2149 173.827C98.4006 173.827 98.5477 173.968 98.6636 174.249C98.7688 174.53 98.4183 175.546 97.9276 176.527C97.3147 177.734 96.8273 178.323 96.2253 178.323C95.7259 178.323 95.1474 177.918 94.3528 177.123C94.0978 176.868 93.8857 176.634 93.7168 176.422H93.7116C93.7307 175.907 93.7505 175.385 93.7711 174.856H93.7659C93.9973 174.79 94.3023 174.758 94.6809 174.758C94.8391 174.758 95.0101 174.764 95.194 174.775C95.4643 174.797 95.7072 174.809 95.9253 174.809C96.7249 174.809 97.1891 174.657 97.437 174.354C97.7514 174.003 98.0073 173.827 98.2149 173.827ZM98.5935 165.032C98.6987 165.032 100.346 165.663 102.238 166.469C104.096 167.24 106.865 168.361 108.407 168.922C109.914 169.483 111.561 170.254 112.016 170.639C112.507 171.025 113.138 171.34 113.383 171.34C113.664 171.34 113.874 171.48 113.874 171.691C113.874 171.866 114.084 172.041 114.365 172.041C114.645 172.041 114.96 172.146 115.066 172.322C115.311 172.742 113.313 178.315 112.647 179.051C112.374 179.34 112.211 179.497 111.895 179.497C111.522 179.497 110.936 179.279 109.703 178.805C108.442 178.315 106.059 177.579 104.411 177.123C101.362 176.352 99.5047 175.441 99.5047 174.74C99.5047 174.53 99.1893 174.039 98.8038 173.618C98.1379 172.917 98.1029 172.672 98.4533 170.324C98.6286 168.922 98.6987 167.17 98.5935 166.399C98.4533 165.663 98.4533 165.032 98.5935 165.032ZM161.64 179.442C161.589 179.447 161.629 179.579 161.748 179.857C161.833 180.139 161.986 180.308 162.097 180.308C162.124 180.308 162.148 180.298 162.169 180.277C162.274 180.172 162.169 179.892 161.923 179.646C161.779 179.516 161.688 179.446 161.646 179.442H161.64ZM162.351 180.81C162.282 180.81 162.239 180.911 162.239 181.118C162.239 181.329 162.379 181.574 162.589 181.679C162.637 181.703 162.675 181.714 162.705 181.714C162.808 181.714 162.811 181.581 162.729 181.364C162.588 180.999 162.446 180.81 162.351 180.81ZM433.824 250.049C433.986 250.049 434.13 250.56 434.273 251.563C434.448 252.614 434.729 253.666 434.939 253.911C435.184 254.226 435.184 254.542 434.939 254.997C434.764 255.295 434.676 255.444 434.628 255.444C434.579 255.444 434.571 255.295 434.553 254.997C434.553 254.682 434.378 254.402 434.168 254.402C433.992 254.402 433.852 254.121 433.887 253.771C433.922 253.455 433.852 252.579 433.712 251.878C433.537 251.177 433.572 250.371 433.712 250.126C433.751 250.075 433.788 250.049 433.824 250.049ZM437.218 256.154C437.223 256.155 437.228 256.163 437.233 256.178H437.225L437.31 257.271H437.305C437.316 257.724 437.322 258.283 437.322 258.887C437.322 260.359 437.427 261.902 437.567 262.252C437.703 262.577 437.713 262.755 437.597 262.755C437.563 262.755 437.518 262.739 437.462 262.708C437.252 262.567 436.901 261.271 436.691 259.834C436.341 257.766 436.341 257.065 436.656 256.645C436.899 256.402 437.141 256.159 437.214 256.154H437.218ZM436.864 263.692C436.949 263.692 437.058 263.806 437.217 264.004C437.532 264.46 437.567 264.88 437.287 265.687C437.09 266.224 436.889 266.462 436.73 266.462C436.464 266.462 436.318 265.794 436.516 264.74C436.647 263.999 436.723 263.692 436.864 263.692ZM264.523 342.044C264.543 342.044 264.56 342.059 264.576 342.089C264.716 342.334 264.996 344.858 265.242 347.661C265.452 350.5 265.627 356.879 265.627 361.855C265.627 371.529 265.522 372.405 263.735 376.82C263.244 378.117 262.613 380.465 262.403 382.042C262.171 383.638 262.015 384.345 261.879 384.345C261.83 384.345 261.783 384.252 261.737 384.075C261.351 382.743 261.421 368.479 261.807 365.676C261.982 364.309 262.263 360.454 262.438 357.089C262.823 350.045 262.999 348.537 263.77 344.542C264.051 343.042 264.36 342.044 264.523 342.044ZM330.384 104C330.09 104 329.758 104.101 329.413 104.295C329.015 104.511 327.922 104.617 326.798 104.617C325.542 104.617 324.247 104.484 323.84 104.225C323.81 104.21 323.775 104.203 323.736 104.203C323.5 104.203 323.114 104.461 322.754 104.821C322.395 105.224 322.151 105.399 321.894 105.399C321.749 105.399 321.599 105.343 321.422 105.242C321.212 105.102 321.019 105.032 320.826 105.032C320.633 105.032 320.441 105.102 320.23 105.242C320.066 105.343 319.92 105.399 319.769 105.399C319.501 105.399 319.219 105.224 318.793 104.821L317.987 104.05L316.655 104.751C316.015 105.071 315.229 105.229 314.535 105.229C313.785 105.229 313.142 105.045 312.905 104.681C312.88 104.638 312.838 104.619 312.783 104.619C312.615 104.619 312.329 104.81 312.064 105.102C311.765 105.455 311.404 105.639 311.06 105.639C310.96 105.639 310.862 105.624 310.768 105.592C310.655 105.559 310.55 105.543 310.459 105.543C310.266 105.543 310.137 105.613 310.137 105.732C310.137 106.052 309.515 106.303 309.011 106.303C308.797 106.303 308.604 106.258 308.489 106.153C308.222 105.885 307.64 105.743 307.167 105.743C306.775 105.743 306.457 105.841 306.457 106.048C306.457 106.499 306.292 106.73 306.012 106.73C305.792 106.73 305.5 106.587 305.16 106.293C304.803 105.97 304.62 105.804 304.549 105.798H304.541C304.477 105.804 304.53 105.979 304.634 106.328C304.754 106.635 304.807 106.793 304.765 106.793C304.721 106.793 304.572 106.618 304.284 106.258C303.957 105.859 303.799 105.666 303.602 105.666C303.418 105.666 303.199 105.832 302.777 106.153C302.208 106.589 301.742 106.81 301.434 106.81C301.172 106.81 301.024 106.65 301.024 106.328C301.024 105.989 300.898 105.821 300.717 105.821C300.505 105.821 300.219 106.05 299.973 106.503C299.763 106.889 299.412 107.204 299.167 107.204C298.922 107.204 298.326 107.45 297.8 107.695C297.381 107.921 297.14 108.035 297.002 108.035C296.839 108.035 296.819 107.877 296.819 107.555C296.819 107.204 297.099 106.714 297.45 106.539C297.763 106.33 297.869 106.156 297.699 106.153H297.691C297.479 106.156 296.957 106.4 296.539 106.714C296.188 106.959 295.995 107.082 295.89 107.082C295.785 107.082 295.767 106.959 295.767 106.714C295.767 106.341 295.328 106.157 294.861 106.157C294.406 106.157 293.926 106.333 293.805 106.679C293.699 106.943 293.493 107.068 293.233 107.068C293.148 107.068 293.058 107.055 292.964 107.029C292.886 107.006 292.8 106.995 292.71 106.995C292.393 106.995 292.026 107.134 291.807 107.38C291.492 107.66 291.106 107.905 290.931 107.905C290.721 107.905 290.475 108.116 290.405 108.326C290.34 108.489 290.275 108.568 290.192 108.568C290.097 108.568 289.978 108.462 289.81 108.256C289.664 108.066 289.572 107.968 289.526 107.963H289.519C289.462 107.97 289.485 108.147 289.564 108.501C289.696 109.072 289.264 109.477 288.854 109.477C288.609 109.477 288.372 109.333 288.267 108.992C288.253 108.928 288.242 108.893 288.234 108.884H288.226C288.205 108.915 288.226 109.272 288.302 109.833C288.435 110.675 288.47 110.999 288.327 110.999C288.244 110.999 288.101 110.889 287.882 110.709C287.59 110.486 287.432 110.372 287.369 110.367H287.361C287.305 110.372 287.34 110.486 287.426 110.709C287.531 111.025 287.426 111.55 287.146 111.901C286.918 112.211 286.764 112.363 286.589 112.363C286.468 112.363 286.337 112.29 286.165 112.146C285.977 111.992 285.847 111.914 285.748 111.914C285.643 111.914 285.571 112.001 285.499 112.181C285.43 112.341 285.345 112.41 285.256 112.41C284.934 112.41 284.555 111.512 284.693 110.744C284.764 110.333 284.799 110.132 284.723 110.126H284.716C284.639 110.132 284.465 110.306 284.132 110.639C283.571 111.2 283.501 111.445 283.816 112.076C284.077 112.536 284.04 112.802 283.843 112.802C283.695 112.802 283.456 112.652 283.186 112.321C282.953 112.054 282.678 111.933 282.415 111.933C281.884 111.933 281.398 112.424 281.398 113.197C281.398 113.793 281.223 114.214 280.943 114.214C280.697 114.214 280.207 114.564 279.856 114.985C279.33 115.581 279.295 115.861 279.611 116.387C280.137 117.193 280.102 117.368 279.471 117.368C279.19 117.368 278.945 117.158 278.945 116.912C278.945 116.78 278.922 116.71 278.875 116.71C278.822 116.71 278.74 116.798 278.63 116.983C278.419 117.298 278.419 117.754 278.63 118.139C278.805 118.49 278.84 118.77 278.7 118.77C278.559 118.805 278.945 119.015 279.576 119.296C280.838 119.856 281.083 120.522 279.996 120.522C279.611 120.522 279.295 120.662 279.295 120.873C279.295 120.982 279.2 121.037 279.042 121.037C278.948 121.037 278.831 121.017 278.7 120.978C278.556 120.926 278.452 120.898 278.386 120.898C278.275 120.898 278.274 120.977 278.384 121.153C278.539 121.429 278.483 121.561 278.322 121.561C278.156 121.561 277.88 121.42 277.613 121.153C277.405 120.945 277.248 120.853 277.149 120.851H277.142C276.933 120.856 276.998 121.282 277.403 121.854C277.683 122.274 278.314 122.625 278.77 122.625C279.786 122.625 280.277 123.291 279.611 123.711C279.225 123.957 279.26 124.027 279.751 124.027C280.767 124.027 280.417 124.728 279.295 124.973C278.279 125.148 278.244 125.219 278.77 125.99C279.26 126.761 279.26 126.796 278.069 127.041C277.403 127.146 276.737 127.392 276.632 127.567C276.527 127.742 276.141 127.882 275.756 127.882C275.125 127.882 275.125 127.952 275.615 128.688C276.702 130.371 275.265 133.034 272.812 133.84C272.146 134.05 271.655 134.401 271.76 134.576C271.901 134.751 271.76 134.892 271.48 134.892C271.2 134.892 270.744 135.242 270.464 135.663C270.078 136.258 269.622 136.399 268.361 136.399C268.246 136.395 268.139 136.393 268.039 136.393C267.152 136.393 266.794 136.529 266.889 136.749C267.07 137.233 265.606 137.926 264.639 137.926C264.486 137.926 264.345 137.909 264.225 137.87C264.057 137.825 263.902 137.799 263.781 137.799C263.625 137.799 263.524 137.842 263.524 137.941C263.524 138.47 262.149 138.956 261.005 138.956C260.71 138.956 260.431 138.923 260.195 138.852C259.815 138.738 259.446 138.675 259.132 138.675C258.865 138.675 258.638 138.72 258.478 138.817C258.263 138.936 258.017 139.006 257.826 139.006C257.735 139.006 257.658 138.991 257.601 138.957C257.563 138.934 257.52 138.923 257.477 138.923C257.325 138.923 257.158 139.062 257.076 139.307C256.975 139.549 256.874 139.664 256.746 139.664C256.652 139.664 256.544 139.602 256.41 139.483C256.164 139.272 255.043 139.097 253.921 139.062C252.59 138.992 251.819 138.817 251.713 138.501C251.642 138.304 251.57 138.208 251.461 138.208C251.356 138.208 251.218 138.295 251.013 138.466C250.834 138.613 250.7 138.691 250.58 138.691C250.442 138.691 250.322 138.586 250.171 138.361C250.065 138.191 249.972 138.099 249.915 138.099C249.878 138.099 249.856 138.138 249.856 138.221C249.856 138.817 247.543 141.2 246.947 141.2C246.667 141.2 246.351 141.34 246.281 141.48C246.106 141.901 242.461 143.653 241.725 143.653C241.375 143.653 241.094 143.829 241.094 144.039C241.094 144.193 240.925 144.29 240.683 144.29C240.595 144.29 240.497 144.277 240.393 144.249C240.297 144.22 240.198 144.207 240.104 144.207C239.857 144.207 239.648 144.297 239.622 144.424C239.552 144.599 239.062 144.81 238.536 144.81C237.905 144.845 237.59 145.09 237.59 145.441C237.59 145.941 237.015 146.376 236.533 146.376C236.408 146.376 236.289 146.347 236.188 146.282C236.168 146.267 236.149 146.26 236.132 146.26C236.032 146.26 235.997 146.517 236.118 146.878C236.196 147.244 236.196 147.434 236.075 147.434C236.034 147.434 235.978 147.412 235.907 147.368C235.836 147.327 235.77 147.307 235.713 147.307C235.575 147.307 235.487 147.425 235.487 147.649C235.487 147.929 235.312 148.209 235.066 148.279C234.821 148.385 234.646 148.91 234.611 149.471C234.611 150.382 234.435 150.558 232.928 151.013C232.017 151.328 231.106 151.784 230.931 152.064C230.8 152.273 230.631 152.385 230.495 152.385C230.448 152.385 230.406 152.372 230.37 152.345C230.353 152.325 230.329 152.316 230.3 152.316C229.956 152.316 228.828 153.538 228.828 153.957C228.828 154.062 229.213 154.167 229.669 154.167C232.438 154.167 233.769 155.324 231.491 155.78C231.256 155.819 231.037 155.839 230.831 155.839C230.303 155.839 229.862 155.707 229.459 155.429C228.896 155.038 228.444 154.849 228.198 154.848H228.191C227.893 154.85 227.906 155.135 228.407 155.674C229.319 156.62 229.389 156.971 228.688 156.971C228.407 156.971 228.127 157.321 228.057 157.742C227.999 158.295 227.844 158.462 227.29 158.462C227.177 158.462 227.048 158.455 226.9 158.443C226.722 158.426 226.576 158.417 226.463 158.417C226.11 158.417 226.074 158.502 226.34 158.688C226.725 158.934 226.585 159.109 225.779 159.529C225.218 159.845 224.552 160.336 224.272 160.651C223.886 161.106 223.921 161.282 224.482 161.702C224.833 161.983 225.569 162.228 226.129 162.228C227.426 162.228 227.356 163.104 225.954 164.506C225.323 165.137 224.342 166.223 223.746 166.924C223.185 167.59 222.484 168.186 222.274 168.186C222.029 168.186 221.818 168.361 221.818 168.572C221.818 168.922 218.804 172.672 217.753 173.618C217.543 173.794 216.982 174.53 216.561 175.196C216.106 175.861 215.44 176.667 215.089 176.983C214.739 177.298 214.459 177.824 214.459 178.139C214.459 178.495 214.349 178.681 214.151 178.681C213.977 178.681 213.736 178.539 213.442 178.244C213.296 178.112 213.206 178.04 213.17 178.035H213.164C213.12 178.042 213.212 178.219 213.442 178.595C213.863 179.296 213.828 179.436 213.232 179.892C212.846 180.207 212.11 180.452 211.585 180.452C210.884 180.452 210.674 180.592 210.814 180.978C210.99 181.419 210.056 182.033 209.42 182.033C209.298 182.033 209.187 182.01 209.096 181.96C209.076 181.949 209.05 181.944 209.021 181.944C208.853 181.944 208.559 182.111 208.29 182.38C208.037 182.633 207.671 182.796 207.409 182.796C207.345 182.796 207.287 182.786 207.239 182.766C207.178 182.746 207.123 182.736 207.073 182.736C206.863 182.736 206.748 182.91 206.748 183.221C206.748 183.874 206.243 184.468 205.869 184.468C205.741 184.468 205.628 184.398 205.557 184.238C205.522 184.156 205.494 184.113 205.477 184.108H205.471C205.445 184.117 205.456 184.257 205.522 184.518C205.627 184.938 205.487 185.464 205.171 185.71C204.891 185.955 204.645 186.375 204.645 186.656C204.645 186.933 204.518 187.066 204.251 187.066C204.147 187.066 204.022 187.046 203.874 187.006C203.71 186.959 203.554 186.937 203.407 186.937C202.678 186.937 202.192 187.492 202.192 188.338C202.192 188.824 202.109 189.019 201.831 189.019C201.748 189.019 201.647 189.001 201.526 188.969C201.45 188.948 201.376 188.938 201.304 188.938C201.012 188.938 200.77 189.101 200.685 189.354C200.569 189.617 200.355 189.758 200.126 189.758C200.079 189.758 200.032 189.752 199.984 189.74C199.961 189.73 199.931 189.725 199.897 189.725C199.577 189.725 198.82 190.158 198.092 190.791C197.353 191.407 196.642 191.833 196.266 191.833C196.213 191.833 196.168 191.825 196.129 191.808C196.042 191.775 195.949 191.759 195.857 191.759C195.652 191.759 195.455 191.838 195.358 191.983C195.253 192.193 194.832 192.368 194.482 192.368C194.131 192.368 193.395 192.754 192.87 193.245C192.383 193.683 192.065 193.884 191.799 193.884C191.682 193.884 191.575 193.845 191.468 193.77C191.335 193.637 191.192 193.576 191.072 193.576C190.97 193.576 190.885 193.62 190.837 193.7C190.643 194.039 189.732 194.277 189.048 194.277C188.74 194.277 188.479 194.229 188.349 194.121C188.289 194.07 188.213 194.046 188.124 194.046C187.843 194.046 187.425 194.283 186.947 194.681C186.359 195.192 185.977 195.387 185.419 195.387C185.211 195.387 184.979 195.36 184.704 195.312C183.915 195.155 183.468 195.076 183.1 195.076C182.732 195.076 182.443 195.155 181.97 195.312C181.772 195.379 181.608 195.41 181.481 195.41C181.273 195.41 181.164 195.325 181.164 195.172C181.164 194.991 181.011 194.886 180.762 194.886C180.673 194.886 180.573 194.899 180.463 194.927C180.311 194.968 180.17 194.988 180.054 194.988C179.878 194.988 179.762 194.942 179.762 194.857C179.762 194.747 179.447 194.693 178.972 194.693C178.686 194.693 178.343 194.712 177.975 194.752C177.531 194.796 177.192 194.819 176.944 194.819C176.407 194.819 176.289 194.711 176.433 194.471C176.581 194.204 176.402 194.113 175.744 194.113C175.627 194.113 175.495 194.115 175.346 194.121C174.717 194.164 174.236 194.187 173.888 194.187C173.111 194.187 172.996 194.072 173.384 193.805C173.699 193.63 173.384 193.455 172.402 193.28C170.93 193.034 170.93 193.034 171.561 192.298C171.993 191.821 172.145 191.653 171.911 191.652H171.905C171.777 191.652 171.539 191.7 171.176 191.773C170.947 191.813 170.727 191.831 170.521 191.831C169.464 191.831 168.785 191.343 169.283 190.756C169.599 190.336 169.528 190.266 168.722 190.266C167.706 190.266 166.094 189.004 166.094 188.198C166.094 187.989 165.958 187.878 165.7 187.878C165.612 187.878 165.509 187.891 165.393 187.918C165.286 187.944 165.187 187.957 165.101 187.957C164.847 187.957 164.692 187.846 164.692 187.637C164.692 187.392 164.061 186.235 163.29 185.079C162.519 183.922 161.888 182.59 161.888 182.1C161.888 181.644 161.678 181.048 161.398 180.803C161.117 180.593 160.942 180.207 161.047 179.962C161.152 179.681 160.977 179.401 160.697 179.296C160.067 179.051 159.263 177.655 159.747 177.649H159.753C159.964 177.652 160.383 177.966 160.767 178.35C161.071 178.67 161.228 178.837 161.306 178.837C161.389 178.837 161.381 178.644 161.363 178.244C161.363 177.824 161.012 177.018 160.592 176.457C160.136 175.896 159.785 175.336 159.785 175.196C159.785 175.02 159.33 174.74 158.734 174.53C157.718 174.214 157.262 173.443 158.068 173.443C158.243 173.443 158.348 173.303 158.208 173.128C158.103 172.917 158.243 172.672 158.489 172.497C158.909 172.251 158.909 172.041 158.524 171.165C158.359 170.766 158.211 170.539 158.12 170.539C158.075 170.539 158.045 170.594 158.033 170.71C158.033 170.997 157.916 171.148 157.653 171.148C157.563 171.148 157.457 171.131 157.332 171.095C156.281 170.815 156.456 169.938 157.577 169.938C158.313 169.938 158.419 169.833 158.103 169.518C157.858 169.272 157.262 169.097 156.701 169.062C155.825 169.062 155.755 168.957 155.72 167.485C155.72 166.013 155.65 165.873 154.563 165.558C153.091 165.137 150.919 161.948 150.884 160.16C150.848 159.494 150.673 158.899 150.463 158.828C150.436 158.82 150.41 158.815 150.385 158.815C150.219 158.815 150.112 159.014 150.112 159.319C150.148 159.67 150.007 160.02 149.797 160.125C149.773 160.137 149.748 160.143 149.721 160.143C149.124 160.143 147.899 157.242 147.764 155.464C147.694 154.518 147.484 153.642 147.274 153.536C146.888 153.291 145.556 149.611 145.697 149.156C145.732 149.015 145.381 147.964 144.891 146.807C143.876 144.393 143.839 144.005 144.537 144.004H144.543C144.822 144.004 145.066 144.109 145.066 144.249C145.066 144.424 145.451 144.529 145.942 144.529C146.958 144.529 147.028 144.284 146.292 143.653C146.012 143.408 145.767 143.023 145.767 142.742C145.767 142.497 145.416 141.936 144.996 141.55C144.33 140.955 144.26 140.709 144.645 140.149C144.926 139.693 144.926 139.448 144.715 139.448C144.119 139.448 142.262 137.275 142.262 136.574C142.262 136.258 141.982 135.803 141.631 135.627C140.65 135.102 140.019 132.368 140.299 129.424C140.475 126.971 140.44 126.726 139.633 125.919C139.088 125.374 138.617 125.104 138.094 125.104C137.744 125.104 137.37 125.225 136.935 125.464C136.723 125.583 136.552 125.647 136.385 125.647C136.108 125.647 135.843 125.472 135.428 125.078C135 124.679 134.485 124.477 133.881 124.477C133 124.477 131.929 124.906 130.661 125.779C129.648 126.47 128.621 126.815 127.679 126.815C127.09 126.815 126.534 126.68 126.035 126.41C125.117 125.929 124.116 125.68 123.221 125.68C122.682 125.68 122.181 125.77 121.76 125.955C121.199 126.235 119.306 126.901 117.554 127.497C113.839 128.688 111.07 129.915 111.07 130.3C111.07 130.931 108.161 133.384 106.269 134.366C105.147 134.962 103.991 135.592 103.71 135.803C102.484 136.714 96.5258 138.046 93.687 138.046C91.3038 138.046 90.6729 138.186 89.9019 138.782C88.9907 139.483 88.0093 139.833 85.1355 140.464C84.4696 140.604 82.4018 141.305 80.5444 142.041C77.3901 143.268 76.9696 143.548 74.3761 146.212C71.9228 148.735 71.4672 149.401 70.7663 151.539C70.3457 152.871 69.5046 154.903 68.9789 155.99C67.8223 158.268 67.7172 159.284 68.5232 160.441C68.9168 160.955 69.2581 161.156 69.9988 161.156C70.1156 161.156 70.2423 161.151 70.3807 161.142C70.439 161.137 70.4999 161.135 70.5633 161.135C71.9864 161.135 74.6342 162.241 75.7079 163.315C76.1275 163.734 76.7263 163.947 77.5348 163.947C78.5496 163.947 79.8948 163.612 81.6308 162.929C83.3125 162.26 84.2128 161.946 85.0133 161.946C85.6808 161.946 86.279 162.164 87.2032 162.579C88.0444 162.964 89.1659 163.279 89.6916 163.279C91.2337 163.279 91.444 163.875 91.3037 167.52C91.2737 169.084 91.2694 170.132 91.3131 170.132C91.3203 170.132 91.3288 170.103 91.3388 170.043C91.3592 169.921 91.4006 169.798 91.4549 169.683H91.4601C91.3167 172.891 91.2011 175.768 91.1133 178.313C90.6554 191.67 90.7211 202.736 91.3103 211.509C91.6854 216.987 92.3484 220.96 93.2995 223.428C93.809 224.837 94.4696 226.075 95.2816 227.141C96.5075 228.71 97.3061 229.494 97.6775 229.494C97.7443 229.494 97.7973 229.469 97.8364 229.418C98.2414 229.409 98.5687 229.257 98.8185 228.961C99.0683 228.644 99.1573 228.291 99.0853 227.905C99.0433 227.706 98.9646 227.533 98.8492 227.384C98.4329 226.957 98.0668 226.557 97.7509 226.183H97.7456C97.75 226.151 97.7524 226.118 97.7524 226.084C97.7173 225.768 97.3318 224.857 96.8762 224.086C96.3856 223.315 95.8599 222.334 95.6846 221.913C95.5789 221.68 95.4093 221.422 95.2453 221.223H95.24C95.0939 220.711 94.9566 220.14 94.8279 219.511H94.8226C94.8097 219.339 94.7759 219.149 94.7249 218.958H94.7197C94.3454 216.957 94.0505 214.426 93.835 211.364C93.4473 205.9 93.289 199.01 93.3601 190.693C93.3835 187.092 93.4864 182.729 93.6687 177.602H93.674L93.687 177.614C94.4853 178.36 95.4727 178.748 96.5522 178.748C96.9418 178.748 97.3434 178.697 97.7524 178.595C98.1304 178.487 98.4773 178.431 98.853 178.431C99.4526 178.431 100.126 178.574 101.117 178.875C108.126 180.943 111.14 182.029 111.316 182.45C111.526 182.941 113.594 183.957 114.4 183.957C114.925 183.957 116.748 180.593 117.379 178.42C117.624 177.614 117.974 176.948 118.15 176.948C118.325 176.948 118.851 177.789 119.306 178.805C120.042 180.382 120.112 180.838 119.762 181.714C119.374 182.747 119.582 184.524 120.028 184.524C120.066 184.524 120.106 184.511 120.147 184.483C120.323 184.378 120.393 183.992 120.288 183.642C120.182 183.291 120.288 182.871 120.498 182.766C120.554 182.728 120.608 182.711 120.657 182.711C120.789 182.711 120.883 182.841 120.883 183.046C120.883 183.361 121.059 183.607 121.234 183.607C121.795 183.607 121.654 184.378 120.989 184.868C120.463 185.254 120.428 185.394 120.848 185.674C121.094 185.85 121.199 186.2 121.059 186.445C121.013 186.536 121.008 186.579 121.037 186.579C121.096 186.579 121.3 186.392 121.584 186.06C121.959 185.614 122.152 185.395 122.228 185.389H122.234C122.3 185.394 122.264 185.587 122.18 185.955C122.075 186.481 122.18 186.761 122.46 186.761C122.951 186.761 124.143 190.195 123.827 190.686C123.722 190.861 124.038 191.387 124.493 191.808C125.369 192.614 129.19 200.149 130.206 203.058C130.802 204.775 130.837 204.81 133.465 210.312C134.762 213.011 136.199 215.394 137.075 216.411C140.334 220.021 147.133 226.504 149.902 228.677C155.65 233.163 167.18 238.666 172.227 239.331C173.384 239.507 175.206 239.787 176.258 239.962C179.888 240.622 183.667 240.956 187.677 240.956C192.183 240.956 196.982 240.535 202.192 239.682C203.454 239.507 205.031 239.261 205.732 239.191C206.433 239.121 207.309 238.876 207.73 238.665C208.115 238.455 208.781 238.28 209.202 238.28C209.622 238.28 210.288 238.105 210.709 237.859C211.129 237.649 212.04 237.404 212.741 237.369C213.442 237.334 214.494 237.053 215.089 236.738C215.685 236.423 216.456 236.177 216.807 236.177C217.122 236.177 218.033 235.967 218.839 235.686C222.308 234.487 224.069 233.966 224.916 233.966C225.208 233.966 225.391 234.028 225.498 234.144C225.744 234.39 227.391 236.492 229.213 238.771C232.227 242.661 232.753 243.116 236.433 245.5C239.517 247.532 240.428 248.268 240.604 249.039C240.709 249.6 241.34 252.159 241.97 254.752C242.601 257.345 243.477 261.201 243.898 263.338C244.319 265.441 244.809 267.754 244.949 268.42C245.3 270.068 246.702 275.149 246.877 275.43C247.087 275.745 248.069 280.406 248.664 283.841C248.945 285.488 249.26 289.168 249.365 292.077C249.47 294.951 249.786 298.701 250.101 300.383C250.627 303.152 250.627 304.133 250.206 309.846C249.653 317.732 249.407 326.813 249.805 326.813C249.81 326.813 249.815 326.812 249.821 326.809C249.846 326.792 249.873 326.784 249.902 326.784C250.235 326.784 250.787 327.858 251.013 329.052C251.118 329.542 251.678 331.259 252.274 332.907C252.905 334.554 253.431 336.271 253.501 336.762C253.571 337.252 253.816 338.725 254.027 340.091C254.237 341.423 254.412 344.367 254.412 346.575C254.412 352.042 253.781 363.818 253.326 366.201C253.15 367.253 252.695 370.232 252.309 372.79C251.538 377.977 251.118 379.169 249.33 381.657C247.858 383.62 246.702 387.37 246.702 390.103C246.702 391.68 246.492 392.241 245.44 393.643C244.739 394.59 243.723 395.606 243.127 395.921C242.531 396.272 241.76 396.762 241.445 397.078C240.218 398.234 238.045 399.18 236.012 399.426C233.98 399.671 233.91 399.706 232.648 401.599C231.316 403.561 230.37 406.05 230.755 406.435C230.861 406.576 231.456 406.68 232.087 406.68C235.171 406.785 235.417 406.856 235.592 407.557C235.716 408.029 235.876 408.184 238.927 408.184C240.175 408.184 241.907 408.158 244.319 408.117C254.798 407.942 259.038 407.381 260.896 405.945C262.087 404.998 262.157 404.858 261.982 403.386C261.842 402.51 261.527 401.458 261.246 401.038C260.966 400.582 260.721 400.126 260.721 400.021C260.721 399.916 262.683 399.846 265.101 399.846C268.221 399.846 269.868 399.706 270.779 399.321C271.445 399.04 272.321 398.795 272.707 398.795C273.758 398.795 275.335 397.849 276.141 396.692C276.877 395.641 276.877 395.606 276.281 393.783C275.931 392.662 275.195 391.505 274.424 390.769C273.232 389.648 273.162 389.437 273.162 387.44C273.162 385.512 273.302 385.127 274.494 383.584C276.176 381.342 276.281 380.921 275.651 377.872C274.389 371.914 273.337 356.809 273.337 344.122C273.337 336.236 273.758 328.981 274.774 319.273C275.51 312.159 275.475 310.862 274.424 308.724C273.407 306.726 270.989 295.792 270.183 289.624C270.008 288.082 269.693 285.698 269.482 284.367C269.307 283 268.992 279.775 268.781 277.182C268.571 274.588 268.256 271.189 268.08 269.647C266.433 256.504 266.328 255.067 266.889 253.736C267.169 253.105 267.379 252.229 267.379 251.808C267.379 251.387 267.625 250.687 267.94 250.231L268.501 249.46L269.272 250.161C270.843 251.617 274.251 252.469 278.152 252.469C279.039 252.469 279.951 252.425 280.873 252.334C285.043 251.878 290.51 250.932 291.422 250.476C291.668 250.361 291.899 250.3 292.133 250.3C292.397 250.3 292.666 250.379 292.964 250.546C293.607 250.883 296.602 251.273 298.354 251.273C298.608 251.273 298.836 251.265 299.027 251.247C299.784 251.171 301.537 251.135 303.707 251.135C306.558 251.135 310.131 251.198 313.116 251.317C314.771 251.386 316.045 251.425 317.125 251.425C319.339 251.425 320.738 251.262 322.929 250.862C325.067 250.511 327.52 250.196 328.396 250.196C329.307 250.196 330.709 249.951 331.515 249.67C332.321 249.39 334.039 249.004 335.335 248.829C336.597 248.654 338.735 248.093 340.067 247.602C341.399 247.112 342.976 246.691 343.571 246.691C344.167 246.691 345.008 246.481 345.394 246.201C345.779 245.92 346.761 245.535 347.567 245.324C352.999 243.852 367.473 234.355 376.726 226.189C379.167 224.045 381.639 222.242 382.126 222.242C382.156 222.242 382.179 222.249 382.193 222.263C382.263 222.334 382.193 224.892 381.983 227.941C381.632 233.268 381.632 233.478 382.368 234.986C383.034 236.247 383.069 236.668 382.754 237.404C382.053 238.946 380.931 243.922 380.931 245.535C380.931 246.761 381.352 247.883 382.894 250.757C384.051 252.965 385.032 255.313 385.312 256.609C385.838 259.168 388.642 265.231 390.079 267.018C390.639 267.684 391.095 268.455 391.095 268.771C391.095 269.051 391.481 269.857 391.936 270.523C393.548 272.906 393.864 274.518 393.478 278.409C393.058 282.825 393.408 295.547 394.074 299.156C394.985 304.273 395.406 308.339 395.161 310.021C394.67 313.175 393.899 320.114 393.899 321.061C393.899 321.621 393.653 322.603 393.373 323.304C393.093 324.005 392.847 324.916 392.847 325.336C392.847 325.722 392.602 326.773 392.287 327.65C391.971 328.526 391.516 331.435 391.27 334.133C390.99 336.867 390.394 340.582 389.868 342.544C389.343 344.472 388.782 346.68 388.607 347.451C387.485 352.077 381.072 370.862 379.635 373.736C379.354 374.297 378.443 375.489 377.602 376.365C376.761 377.241 375.359 379.344 374.448 381.096C372.59 384.706 370.628 386.914 368.525 387.755C367.754 388.07 366.352 388.737 365.476 389.192C364.284 389.788 363.268 390.033 361.831 390.033C360.359 390.033 359.483 390.243 358.537 390.804C356.258 392.241 354.892 394.274 355.557 395.36C355.698 395.606 355.838 396.201 355.838 396.692C355.873 397.709 356.223 397.778 365.336 398.62C369.071 398.953 371.814 399.136 373.847 399.136C377.805 399.136 379.081 398.441 379.775 396.797C380.231 395.711 380.231 395.185 379.915 393.783C379.284 391.085 379.389 390.874 381.738 388.947C382.929 387.965 384.121 386.739 384.401 386.248C384.646 385.757 385.312 383.655 385.908 381.517C386.469 379.414 387.38 376.785 387.906 375.699C388.467 374.612 389.623 371.774 390.499 369.355C395.441 355.757 403.432 338.549 409.39 328.596C410.581 326.633 411.738 324.811 412.018 324.565C412.263 324.32 412.474 323.865 412.474 323.584C412.474 323.304 412.649 323.094 412.824 323.094C413.034 323.094 413.175 322.848 413.175 322.568C413.175 322.288 413.49 321.902 413.876 321.692C414.261 321.481 414.576 321.026 414.576 320.64C414.576 320.29 414.752 319.869 414.927 319.764C415.137 319.624 415.523 318.993 415.803 318.327C416.259 317.241 416.224 316.82 415.418 313.771C414.016 308.163 412.123 283.841 412.754 279.46L413.069 277.357L413.63 278.654C413.946 279.355 414.612 282.054 415.102 284.612C415.593 287.17 416.329 290.675 416.679 292.357C417.065 294.075 417.38 295.687 417.38 296.002C417.38 296.283 418.432 299.472 419.728 303.082L422.042 309.6L421.936 317.311C421.726 328.596 421.901 335.675 422.322 336.517C422.953 337.638 423.093 342.545 422.672 346.154C422.462 347.942 422.112 351.727 421.936 354.566C421.726 357.404 421.13 362.311 420.534 365.5C419.974 368.69 419.483 372.159 419.483 373.211C419.483 376.014 417.661 382.673 416.364 384.741C415.032 386.809 413.525 390.524 413.525 391.75C413.525 393.468 410.546 397.078 408.268 398.164C405.149 399.601 404.378 399.846 403.046 399.846C401.469 399.846 401.154 400.021 399.121 402.124C396.703 404.613 397.123 406.856 400.067 406.856C400.873 406.856 401.259 407.031 401.259 407.381C401.259 408.363 402.52 408.538 409.705 408.573C410.29 408.579 410.854 408.582 411.396 408.582C417.387 408.582 420.823 408.226 422.462 407.487C423.759 406.891 424.004 404.613 423.023 401.914C422.042 399.321 422.287 398.374 424.705 395.36L426.387 393.257L426.598 386.669C426.703 383.024 427.053 378.538 427.334 376.715C428.77 368.234 429.436 364.729 430.207 361.645C430.663 359.823 431.049 357.825 431.049 357.194C431.049 355.407 433.011 346.54 434.588 341.318C437.182 332.591 439.845 324.53 440.161 324.32C440.371 324.18 440.511 323.759 440.511 323.304C440.511 322.848 440.827 322.217 441.212 321.867C441.598 321.517 441.913 320.991 441.913 320.675C441.948 320.36 442.404 319.554 442.965 318.888C444.437 317.206 444.366 315.769 442.579 311.984C440.056 306.551 438.478 301.645 437.112 295.231C436.831 293.9 436.481 292.147 436.306 291.376C436.165 290.605 435.71 289.028 435.324 287.871C434.939 286.715 434.273 283.631 433.852 281.037C433.221 276.937 433.151 275.395 433.292 269.296C433.397 265.441 433.502 260.92 433.467 259.203C433.467 257.31 433.607 256.154 433.817 256.154C434.028 256.154 434.203 256.785 434.203 257.521C434.203 258.292 434.343 259.028 434.553 259.133C434.729 259.238 434.869 259.694 434.869 260.114C434.799 262.357 435.289 265.301 435.955 266.808C436.691 268.42 436.691 268.596 436.165 269.717C435.733 270.62 435.565 271.051 435.686 271.051C435.781 271.051 436.054 270.786 436.516 270.278C437.007 269.752 437.567 269.262 437.743 269.262C437.918 269.226 438.233 269.191 438.479 269.156C438.724 269.121 438.654 268.876 438.268 268.455C437.637 267.754 437.637 267.123 438.303 266.423C438.535 266.157 438.642 265.484 438.564 264.76H438.572C438.578 264.761 438.583 264.762 438.588 264.762C438.623 264.762 438.657 264.731 438.692 264.669C438.692 264.671 438.693 264.672 438.693 264.672C438.703 264.672 438.732 264.519 438.782 264.215L438.79 264.187H438.799C438.896 264.373 438.96 264.471 439.001 264.471C439.064 264.471 439.074 264.243 439.074 263.759C439.079 263.691 439.08 263.625 439.08 263.564H439.071L439.124 263.381L439.27 263.107L439.601 261.8C439.648 261.463 439.685 261.177 439.712 260.941H439.704C439.909 260.877 439.952 260.587 439.858 259.936H439.849C439.865 259.831 439.878 259.739 439.887 259.658C439.902 259.55 439.92 259.343 439.942 259.037C439.98 258.75 439.999 258.585 439.998 258.542C440.005 258.433 440.006 258.315 440.002 258.189C439.976 257.812 439.963 257.562 439.962 257.44C439.961 257.278 439.961 257.129 439.96 256.994H439.951C440.182 256.551 440.318 256.341 440.422 256.341C440.508 256.341 440.573 256.482 440.651 256.75C440.677 256.834 440.694 256.874 440.704 256.874C440.736 256.874 440.696 256.477 440.616 255.839C440.504 254.882 440.527 254.513 440.721 254.513C440.769 254.513 440.828 254.535 440.897 254.577C440.998 254.645 441.071 254.679 441.116 254.679C441.213 254.679 441.191 254.524 441.072 254.191C440.86 253.637 440.633 252.779 440.44 251.875H440.431C440.435 251.848 440.439 251.82 440.443 251.791L440.543 251.399L440.608 250.919C440.614 250.866 440.617 250.811 440.617 250.757L440.601 250.426C440.596 250.403 440.62 250.294 440.673 250.098C440.683 249.915 440.692 249.81 440.702 249.783L440.848 249.361C440.887 249.174 440.958 248.932 441.061 248.634L441.104 248.437C441.15 248.122 441.146 247.79 441.094 247.442C441.014 247.055 440.959 246.833 440.93 246.777C440.67 246.084 440.493 245.603 440.399 245.333C440.356 245.217 440.278 245.049 440.165 244.831L439.945 244.453C439.844 244.317 439.754 244.193 439.677 244.082H439.686C439.713 244.095 439.736 244.102 439.755 244.102C439.79 244.102 439.81 244.078 439.81 244.028C439.81 243.817 439.67 243.537 439.495 243.362C439.285 243.151 439.074 242.591 438.969 242.065C438.899 241.539 438.584 240.593 438.303 239.962C438.023 239.331 437.532 238.245 437.217 237.509C436.621 236.142 436.551 235.511 436.866 234.635C436.956 234.397 437.09 234.293 437.237 234.293C437.608 234.293 438.058 234.953 438.058 235.757C438.058 236.209 438.106 236.419 438.226 236.419C438.282 236.419 438.354 236.372 438.443 236.282C438.899 235.827 437.848 233.584 436.691 232.532C436.306 232.182 435.885 231.376 435.78 230.78C435.499 228.852 435.359 223.911 435.64 223.911C435.78 223.911 435.71 223.455 435.499 222.894C435.219 222.158 435.219 221.387 435.535 219.985C435.78 218.969 435.92 217.742 435.92 217.252C435.85 216.165 436.13 213.537 436.656 210.593C436.901 209.331 437.112 207.369 437.147 206.212C437.147 205.056 437.322 203.899 437.462 203.653C437.637 203.443 437.637 203.023 437.462 202.777C437.322 202.567 437.077 199.448 436.972 195.873C436.691 188.688 436.235 184.763 435.429 183.151C435.149 182.59 434.904 181.854 434.869 181.539C434.869 181.223 434.553 180.488 434.168 179.927C433.817 179.331 433.362 178.49 433.151 178.069C432.731 177.123 430.733 174.53 429.016 172.742C428.35 172.076 427.544 170.885 427.193 170.114C426.878 169.343 426.037 167.835 425.371 166.784C424.705 165.733 424.214 164.646 424.284 164.401C424.39 164.191 424.285 163.981 424.074 163.981C423.864 163.981 423.689 163.805 423.689 163.63C423.689 162.894 422.182 161.212 421.165 160.791C420.605 160.581 420.219 160.195 420.324 159.95C420.394 159.705 420.114 159.319 419.623 159.074C419.168 158.793 418.782 158.338 418.782 157.988C418.782 157.637 418.607 156.936 418.362 156.445C418.011 155.639 418.011 155.464 418.537 155.184C419.168 154.798 419.378 152.941 418.817 152.625C418.642 152.485 418.537 152.135 418.572 151.784C418.642 151.469 418.502 151.048 418.291 150.908C418.011 150.698 418.046 150.558 418.362 150.417C418.957 150.172 415.453 146.913 414.261 146.632C413.77 146.492 413.21 146.177 413.034 145.931C412.649 145.476 410.932 144.74 408.268 143.934C407.602 143.723 406.971 143.478 406.866 143.338C406.761 143.198 406.025 142.882 405.184 142.637C404.027 142.321 403.712 142.076 403.852 141.656C403.97 141.348 403.945 141.232 403.658 141.232C403.52 141.232 403.32 141.259 403.046 141.305C402.856 141.345 402.68 141.365 402.518 141.365C402.114 141.365 401.8 141.24 401.574 140.99C401.383 140.751 401.095 140.626 400.686 140.626C400.495 140.626 400.278 140.653 400.032 140.709C399.842 140.746 399.647 140.763 399.451 140.763C398.889 140.763 398.318 140.619 397.824 140.359C397.36 140.113 396.811 139.974 396.459 139.974C396.358 139.974 396.274 139.985 396.212 140.008C396.131 140.035 396.051 140.048 395.974 140.048C395.749 140.048 395.554 139.937 395.476 139.728C395.362 139.415 394.972 139.287 394.118 139.287C393.919 139.287 393.695 139.294 393.443 139.307C393.088 139.324 392.768 139.333 392.481 139.333C390.986 139.333 390.394 139.095 390.394 138.536C390.394 138.256 390.044 138.046 389.518 138.046C389.062 138.046 388.537 137.8 388.361 137.485C388.237 137.257 388.125 137.139 388.018 137.139C387.944 137.139 387.872 137.195 387.801 137.31C387.644 137.561 387.424 137.678 387.248 137.678C387.03 137.678 386.878 137.499 386.995 137.17C387.275 136.504 386.819 136.258 385.172 136.118C384.436 136.083 383.665 135.978 383.525 135.873C383.35 135.803 382.754 135.698 382.228 135.663C381.667 135.627 381.002 135.347 380.721 135.067C380.406 134.786 379.985 134.541 379.705 134.541C379.46 134.541 379.179 134.296 379.039 134.015C378.934 133.735 378.513 133.49 378.128 133.49C377.742 133.49 377.322 133.244 377.216 132.964C377.076 132.684 376.796 132.438 376.586 132.438C375.955 132.438 374.273 131.597 374.273 131.282C374.273 131.141 373.887 131.036 373.396 131.036C372.766 131.036 372.52 130.861 372.52 130.335C372.52 129.95 372.345 129.634 372.17 129.634C371.959 129.634 371.819 129.354 371.889 129.004C371.947 128.632 371.84 128.493 371.398 128.493C371.299 128.493 371.183 128.5 371.048 128.513C370.915 128.531 370.797 128.541 370.69 128.541C370.18 128.541 369.948 128.316 369.716 127.707C369.541 127.216 369.086 126.726 368.77 126.585C368.42 126.445 367.684 125.99 367.158 125.534C366.597 125.078 365.791 124.623 365.301 124.518C364.845 124.412 364.459 124.097 364.459 123.817C364.459 123.536 364.319 123.326 364.144 123.326C363.969 123.326 363.899 122.906 363.969 122.345C364.065 121.866 364.062 121.649 363.962 121.649C363.915 121.649 363.847 121.695 363.758 121.784C363.66 121.882 363.497 121.924 363.301 121.924C362.521 121.924 361.228 121.258 361.48 120.838C361.621 120.662 361.445 120.522 361.165 120.522C360.394 120.522 360.464 119.962 361.34 119.366C361.885 118.969 361.87 118.591 361.53 118.588H361.522C361.382 118.589 361.187 118.653 360.955 118.805C360.674 118.98 360.219 119.12 359.938 119.12C359.553 119.12 359.588 118.945 360.079 118.419C360.578 117.864 360.572 117.639 359.939 117.639C359.772 117.639 359.563 117.654 359.308 117.684C359.295 117.685 359.282 117.686 359.27 117.686C359.011 117.686 358.852 117.344 358.852 116.842C358.852 116.177 358.677 115.966 358.081 115.966C357.625 115.966 356.819 115.651 356.258 115.3C355.759 114.968 355.373 114.812 355.001 114.812C354.825 114.812 354.652 114.847 354.471 114.915C354.176 115.026 353.935 115.076 353.76 115.076C353.331 115.076 353.303 114.777 353.875 114.354C354.214 114.088 354.219 113.972 353.566 113.972C353.273 113.972 352.849 113.995 352.263 114.039C352.001 114.054 351.755 114.061 351.531 114.061C350.707 114.061 350.183 113.966 350.265 113.828C350.353 113.719 350.317 113.664 350.21 113.664C350.145 113.664 350.055 113.684 349.95 113.723C349.902 113.739 349.847 113.747 349.789 113.747C349.465 113.747 349.004 113.508 348.618 113.092C348.093 112.532 347.427 112.251 346.796 112.251C346.76 112.252 346.724 112.253 346.69 112.253C345.291 112.253 345.36 111.57 346.831 110.955L348.163 110.429L347.111 110.183C345.219 109.763 345.114 109.693 345.359 108.957C345.507 108.512 345.548 108.302 345.309 108.302C345.096 108.302 344.662 108.468 343.887 108.782C343.37 109.014 342.778 109.151 342.389 109.151C342.251 109.151 342.138 109.134 342.064 109.097C341.803 108.981 341.421 108.913 341.099 108.913C341.032 108.913 340.968 108.916 340.908 108.922C340.875 108.925 340.842 108.927 340.809 108.927C340.522 108.927 340.228 108.795 340.102 108.606C339.997 108.431 340.032 108.256 340.242 108.256C340.452 108.256 340.908 107.905 341.328 107.485C342.275 106.468 341.749 106.153 338.875 106.153C337.333 106.153 336.772 106.048 337.123 105.802C337.646 105.461 337.327 105.223 336.722 105.223C336.396 105.223 335.986 105.292 335.581 105.452C334.985 105.68 334.643 105.794 334.486 105.794C334.328 105.794 334.354 105.68 334.494 105.452C334.599 105.242 334.459 105.102 334.179 105.102C333.863 105.102 333.618 104.926 333.618 104.751C333.618 104.541 333.127 104.401 332.532 104.401C331.936 104.401 331.2 104.26 330.884 104.12C330.736 104.039 330.568 104 330.384 104Z" fill="black"/>
</svg>
